<svg width="34" height="34" viewBox="0 0 34 34" fill="none" xmlns="http://www.w3.org/2000/svg">
<path d="M13.6013 28.3333H20.4013C26.068 28.3333 28.3346 26.0667 28.3346 20.4V13.6C28.3346 7.93332 26.068 5.66666 20.4013 5.66666H13.6013C7.93464 5.66666 5.66797 7.93332 5.66797 13.6V20.4C5.66797 26.0667 7.93464 28.3333 13.6013 28.3333Z" stroke="#292D32" stroke-width="1.5" stroke-linecap="round" stroke-linejoin="round"/>
<path d="M14.8763 24.0833H19.1263C22.668 24.0833 24.0846 22.6667 24.0846 19.125V14.875C24.0846 11.3333 22.668 9.91666 19.1263 9.91666H14.8763C11.3346 9.91666 9.91797 11.3333 9.91797 14.875V19.125C9.91797 22.6667 11.3346 24.0833 14.8763 24.0833Z" stroke="#292D32" stroke-width="1.5" stroke-linecap="round" stroke-linejoin="round"/>
<path d="M11.3477 5.66668V2.83334" stroke="#292D32" stroke-width="1.5" stroke-linecap="round" stroke-linejoin="round"/>
<path d="M17 5.66668V2.83334" stroke="#292D32" stroke-width="1.5" stroke-linecap="round" stroke-linejoin="round"/>
<path d="M22.668 5.66668V2.83334" stroke="#292D32" stroke-width="1.5" stroke-linecap="round" stroke-linejoin="round"/>
<path d="M28.332 11.3333H31.1654" stroke="#292D32" stroke-width="1.5" stroke-linecap="round" stroke-linejoin="round"/>
<path d="M28.332 17H31.1654" stroke="#292D32" stroke-width="1.5" stroke-linecap="round" stroke-linejoin="round"/>
<path d="M28.332 22.6667H31.1654" stroke="#292D32" stroke-width="1.5" stroke-linecap="round" stroke-linejoin="round"/>
<path d="M22.668 28.3333V31.1667" stroke="#292D32" stroke-width="1.5" stroke-linecap="round" stroke-linejoin="round"/>
<path d="M17.0156 28.3333V31.1667" stroke="#292D32" stroke-width="1.5" stroke-linecap="round" stroke-linejoin="round"/>
<path d="M11.3477 28.3333V31.1667" stroke="#292D32" stroke-width="1.5" stroke-linecap="round" stroke-linejoin="round"/>
<path d="M2.83203 11.3333H5.66536" stroke="#292D32" stroke-width="1.5" stroke-linecap="round" stroke-linejoin="round"/>
<path d="M2.83203 17H5.66536" stroke="#292D32" stroke-width="1.5" stroke-linecap="round" stroke-linejoin="round"/>
<path d="M2.83203 22.6667H5.66536" stroke="#292D32" stroke-width="1.5" stroke-linecap="round" stroke-linejoin="round"/>
</svg>
