<svg width="72" height="43" viewBox="0 0 72 43" fill="none" xmlns="http://www.w3.org/2000/svg">
<path d="M20.2363 15.5957C20.2363 16.4794 20.3318 17.1959 20.499 17.7213C20.69 18.2467 20.9289 18.8199 21.2632 19.4409C21.3826 19.6319 21.4304 19.823 21.4304 19.9902C21.4304 20.229 21.2871 20.4678 20.9766 20.7067L19.472 21.7098C19.257 21.8531 19.0421 21.9247 18.851 21.9247C18.6122 21.9247 18.3734 21.8053 18.1345 21.5904C17.8002 21.2321 17.5136 20.85 17.2747 20.4678C17.0359 20.0618 16.7971 19.6081 16.5344 19.0587C14.6715 21.256 12.3309 22.3546 9.51273 22.3546C7.50655 22.3546 5.90638 21.7814 4.7361 20.635C3.56583 19.4886 2.96875 17.9601 2.96875 16.0495C2.96875 14.0194 3.68524 12.3715 5.14212 11.1295C6.59899 9.88762 8.53352 9.26666 10.9935 9.26666C11.8055 9.26666 12.6414 9.33831 13.5251 9.45772C14.4088 9.57714 15.3163 9.7682 16.2717 9.98315V8.23968C16.2717 6.42456 15.8895 5.15876 15.1491 4.41838C14.3849 3.678 13.0952 3.31976 11.2562 3.31976C10.4203 3.31976 9.5605 3.41529 8.67682 3.63024C7.79314 3.84518 6.93335 4.1079 6.09744 4.44226C5.71531 4.60945 5.42871 4.70498 5.26153 4.75274C5.09435 4.80051 4.97493 4.82439 4.8794 4.82439C4.54504 4.82439 4.37785 4.58556 4.37785 4.08402V2.91374C4.37785 2.53161 4.42562 2.24501 4.54504 2.07783C4.66445 1.91065 4.8794 1.74347 5.21376 1.57629C6.04967 1.14639 7.05277 0.788143 8.22304 0.501546C9.39331 0.191065 10.6352 0.0477663 11.9488 0.0477663C14.7909 0.0477663 16.8687 0.692611 18.2062 1.9823C19.5198 3.27199 20.1885 5.23041 20.1885 7.85755V15.5957H20.2363ZM10.5397 19.2259C11.3278 19.2259 12.1399 19.0826 12.9997 18.796C13.8595 18.5094 14.6237 17.984 15.2686 17.2675C15.6507 16.8137 15.9373 16.3122 16.0806 15.739C16.2239 15.1658 16.3194 14.4732 16.3194 13.6612V12.6581C15.6268 12.4909 14.8864 12.3476 14.1222 12.252C13.3579 12.1565 12.6175 12.1088 11.8772 12.1088C10.277 12.1088 9.10672 12.4192 8.31857 13.0641C7.53043 13.7089 7.1483 14.6165 7.1483 15.8106C7.1483 16.9331 7.4349 17.7691 8.03197 18.3422C8.60517 18.9393 9.44108 19.2259 10.5397 19.2259ZM29.7179 21.8053C29.288 21.8053 29.0014 21.7337 28.8103 21.5665C28.6192 21.4232 28.4521 21.0888 28.3088 20.635L22.6962 2.17337C22.5529 1.6957 22.4813 1.38522 22.4813 1.21804C22.4813 0.83591 22.6723 0.620961 23.0545 0.620961H25.395C25.8488 0.620961 26.1593 0.692611 26.3265 0.859793C26.5175 1.00309 26.6608 1.33746 26.8041 1.79124L30.8165 17.6019L34.5423 1.79124C34.6617 1.31357 34.805 1.00309 34.996 0.859793C35.1871 0.716494 35.5215 0.620961 35.9514 0.620961H37.862C38.3158 0.620961 38.6263 0.692611 38.8173 0.859793C39.0084 1.00309 39.1756 1.33746 39.2711 1.79124L43.0447 17.7929L47.1764 1.79124C47.3197 1.31357 47.4869 1.00309 47.6541 0.859793C47.8452 0.716494 48.1556 0.620961 48.5855 0.620961H50.8067C51.1888 0.620961 51.4038 0.812027 51.4038 1.21804C51.4038 1.33746 51.3799 1.45687 51.356 1.60017C51.3321 1.74347 51.2843 1.93453 51.1888 2.19725L45.433 20.6589C45.2897 21.1366 45.1225 21.4471 44.9314 21.5904C44.7404 21.7337 44.4299 21.8292 44.0239 21.8292H41.9699C41.5161 21.8292 41.2057 21.7575 41.0146 21.5904C40.8235 21.4232 40.6563 21.1127 40.5608 20.635L36.8589 5.23041L33.1809 20.6111C33.0615 21.0888 32.9182 21.3993 32.7271 21.5665C32.5361 21.7337 32.2017 21.8053 31.7718 21.8053H29.7179ZM60.4077 22.4501C59.1658 22.4501 57.9239 22.3068 56.7297 22.0203C55.5355 21.7337 54.6041 21.4232 53.9831 21.0649C53.601 20.85 53.3383 20.6111 53.2428 20.3962C53.1472 20.1812 53.0995 19.9424 53.0995 19.7275V18.5094C53.0995 18.0079 53.2905 17.7691 53.6488 17.7691C53.7921 17.7691 53.9354 17.7929 54.0787 17.8407C54.222 17.8885 54.4369 17.984 54.6757 18.0795C55.4878 18.4378 56.3714 18.7244 57.3029 18.9154C58.2582 19.1065 59.1897 19.202 60.145 19.202C61.6496 19.202 62.8199 18.9393 63.6319 18.4139C64.4439 17.8885 64.8738 17.1242 64.8738 16.145C64.8738 15.4763 64.6589 14.927 64.229 14.4732C63.7991 14.0194 62.9871 13.6134 61.8168 13.2313L58.3537 12.1565C56.6103 11.6072 55.3206 10.7952 54.5324 9.72044C53.7443 8.66958 53.3383 7.4993 53.3383 6.25738C53.3383 5.25429 53.5532 4.37061 53.9831 3.60635C54.413 2.84209 54.9862 2.17337 55.7027 1.64794C56.4192 1.09862 57.2312 0.692611 58.1866 0.406013C59.1419 0.119416 60.145 0 61.1958 0C61.7213 0 62.2706 0.0238831 62.796 0.0955325C63.3453 0.167182 63.8469 0.262715 64.3484 0.358247C64.8261 0.477663 65.2799 0.597078 65.7098 0.740377C66.1397 0.883676 66.474 1.02697 66.7128 1.17027C67.0472 1.36134 67.286 1.5524 67.4293 1.76735C67.5726 1.95842 67.6443 2.22113 67.6443 2.5555V3.678C67.6443 4.17955 67.4532 4.44226 67.095 4.44226C66.9039 4.44226 66.5934 4.34673 66.1874 4.15567C64.8261 3.5347 63.2976 3.22422 61.6019 3.22422C60.2405 3.22422 59.1658 3.43917 58.4254 3.89295C57.685 4.34673 57.3029 5.03934 57.3029 6.01855C57.3029 6.68728 57.5417 7.26047 58.0194 7.71425C58.497 8.16803 59.3807 8.62181 60.6465 9.02783L64.0379 10.1026C65.7575 10.6519 66.9994 11.4161 67.7398 12.3953C68.4802 13.3746 68.8384 14.4971 68.8384 15.739C68.8384 16.766 68.6235 17.6974 68.2175 18.5094C67.7876 19.3215 67.2144 20.038 66.474 20.6111C65.7336 21.2082 64.85 21.6381 63.823 21.9486C62.7482 22.283 61.6257 22.4501 60.4077 22.4501Z" fill="#252F3E"/>
<path d="M64.922 34.0573C57.0645 39.8609 45.6483 42.9418 35.8324 42.9418C22.0757 42.9418 9.68032 37.8547 0.318127 29.4001C-0.42225 28.7314 0.246478 27.8238 1.13015 28.3492C11.2566 34.2245 23.7475 37.7831 36.6683 37.7831C45.3856 37.7831 54.9627 35.968 63.7756 32.2422C65.0892 31.6451 66.2117 33.102 64.922 34.0573Z" fill="#FF9900"/>
<path d="M68.1936 30.3316C67.1905 29.0419 61.5541 29.7107 58.9986 30.0211C58.2344 30.1167 58.1149 29.4479 58.8076 28.9464C63.2976 25.7938 70.6775 26.7014 71.5373 27.7522C72.3971 28.827 71.2984 36.2069 67.095 39.7416C66.4502 40.2909 65.8292 40.0043 66.1158 39.2878C67.0711 36.9234 69.1967 31.5974 68.1936 30.3316Z" fill="#FF9900"/>
</svg>
