<svg width="60" height="60" viewBox="0 0 60 60" fill="none" xmlns="http://www.w3.org/2000/svg">
<path d="M30 60C46.5685 60 60 46.5686 60 30C60 13.4315 46.5685 0 30 0C13.4315 0 0 13.4315 0 30C0 46.5686 13.4315 60 30 60Z" fill="#EF8354"/>
<path d="M32.5205 27.8574L42.4785 16.2607H40.0835L31.386 26.3448L24.4533 16.2607H16.5121L26.9743 31.5128L16.5121 43.6137H18.907L27.9827 33.0255L35.2936 43.6137H43.2348L32.5205 27.8574ZM29.2432 31.6389L28.2348 30.1263L19.7894 18.0255H23.4449L30.2516 27.7313L31.26 29.244L40.0835 41.849H36.4281L29.2432 31.6389Z" fill="white"/>
</svg>
